# xmcd CD database file
#
# Track frame offsets:
#	150
#	33339
#	58357
#	91945
#	114925
#	146785
#	168292
#	202261
#	227155
#
# Disc length: 3928 seconds
#
# Revision: 0
# Processed by: cddbd v1.5.2PL0 Copyright (c) Steve Scherf et al.
# Submitted via: CDex 1.51
#
DISCID=7e0f5609
DTITLE=ERIC CLAPTON and HIS BAND - Civic Banquet(25 Anniversary Live) cd-2
DYEAR=1988
DGENRE=Blues
TTITLE0=Bedge
TTITLE1=Let It Rain
TTITLE2=Cocaine
TTITLE3=A Remark You Make
TTITLE4=Layla
TTITLE5=Behind The Mask
TTITLE6=Sunshine Of Your Love
TTITLE7=Meney For Nothing
TTITLE8=Further On Up The Road
EXTD=YEAR: 1988
EXTT0=
EXTT1=
EXTT2=
EXTT3=
EXTT4=
EXTT5=
EXTT6=
EXTT7=
EXTT8=
PLAYORDER=
